# xmcd
#
# Track frame offsets: 
#        183
#        9053
#        18858
#        25745
#        39595
#        47770
#        59445
#        80473
#        104530
#        125148
#        136528
#        144050
#        172788
#        181820
#        191693
#        200860
#        217630
#        228423
#        243325
#
# Disc length: 3406 seconds
#
# Revision: 0
# Processed by: cddbd v1.5.2PL0 Copyright (c) Steve Scherf et al.
# Submitted via: ExactAudioCopy v0.99pb4
#
DISCID=ed0d4c13
DTITLE=Albert McNeil, Los Angeles Jubilee Singers - I Concerti ItalCab
DTITLE=le - Spirituals and Gospels
DYEAR=1981
DGENRE=Blues
TTITLE0=Ezechiel Saw...
TTITLE1=John the Relevator
TTITLE2=Don't you Let Nobody
TTITLE3=I want Jesus to walk with me
TTITLE4=O Mary don't you weep
TTITLE5=In that great gettin'
TTITLE6=Worthy to be prised
TTITLE7=Oh happy day
TTITLE8=Let there be peace
TTITLE9=Mary's Little Boy
TTITLE10=Wonderful Counselor
TTITLE11=Mary was the Queen
TTITLE12=Marry a Woman
TTITLE13=Travelin' Man
TTITLE14=Long John...
TTITLE15=World goin' down
TTITLE16=Walk together children
TTITLE17=Reach out...
TTITLE18=Give me...
EXTD=
EXTT0=
EXTT1=
EXTT2=
EXTT3=
EXTT4=
EXTT5=
EXTT6=
EXTT7=
EXTT8=
EXTT9=
EXTT10=
EXTT11=
EXTT12=
EXTT13=
EXTT14=
EXTT15=
EXTT16=
EXTT17=
EXTT18=
PLAYORDER=
